<svg width="384" height="333" viewBox="0 0 384 333" fill="none" xmlns="http://www.w3.org/2000/svg">
<g clip-path="url(#clip0)">
<path d="M287.7 0H95.9L0 166.1L95.9 332.21H287.7L383.6 166.1L287.7 0Z" fill="url(#paint0_linear)"/>
<path d="M291.59 164.59C283 144.31 262.89 130.05 239.52 130.05C238.66 130.05 237.81 130.08 236.96 130.11C236.68 130.12 236.41 130.14 236.13 130.16C235.54 130.2 234.95 130.24 234.36 130.3C234.06 130.33 233.77 130.35 233.47 130.38C232.72 130.46 231.98 130.55 231.24 130.66V113.03H278.54V86.03H204.24V134.27C212.36 142.05 218.67 151.69 222.49 162.51C223.28 161.95 224.09 161.41 224.93 160.93C225.28 160.73 225.64 160.54 225.99 160.35C226.16 160.26 226.32 160.18 226.49 160.09C227.01 159.83 227.54 159.59 228.08 159.36C228.09 159.36 228.1 159.35 228.11 159.35C228.65 159.12 229.21 158.91 229.76 158.72C229.87 158.68 229.99 158.64 230.11 158.6C230.61 158.43 231.11 158.28 231.62 158.14C231.7 158.12 231.78 158.09 231.85 158.07C233.03 157.75 234.23 157.51 235.44 157.34C235.58 157.32 235.71 157.31 235.85 157.29C236.32 157.23 236.79 157.18 237.26 157.15C237.41 157.14 237.57 157.12 237.72 157.11C238.32 157.07 238.92 157.05 239.52 157.05C252.75 157.05 263.97 165.79 267.71 177.8C268.57 180.57 269.04 183.52 269.04 186.57C269.04 189.62 268.57 192.57 267.71 195.34C263.97 207.35 252.74 216.09 239.52 216.09C238.92 216.09 238.32 216.07 237.72 216.03C237.56 216.02 237.41 216.01 237.26 215.99C236.79 215.95 236.32 215.91 235.85 215.85C235.71 215.83 235.58 215.82 235.44 215.8C234.23 215.63 233.03 215.39 231.85 215.07C231.77 215.05 231.69 215.03 231.62 215C231.11 214.86 230.61 214.7 230.11 214.54C229.99 214.5 229.88 214.46 229.76 214.42C229.2 214.23 228.65 214.02 228.11 213.79C228.1 213.79 228.09 213.78 228.08 213.78C227.54 213.55 227.02 213.31 226.49 213.05C226.32 212.97 226.16 212.88 225.99 212.79C225.63 212.6 225.28 212.41 224.93 212.21C224.09 211.73 223.28 211.19 222.49 210.63C219.43 219.29 214.77 227.2 208.87 234C209.54 234.43 210.22 234.86 210.91 235.27L210.9 235.29C212.19 236.05 213.52 236.75 214.86 237.41C214.99 237.47 215.12 237.53 215.24 237.59C215.94 237.92 216.64 238.24 217.36 238.55C217.44 238.58 217.51 238.62 217.59 238.65C218.29 238.95 219 239.22 219.71 239.49C220.01 239.6 220.31 239.71 220.62 239.82C221.08 239.98 221.55 240.14 222.02 240.29C222.48 240.44 222.95 240.59 223.42 240.73C223.91 240.88 224.41 241.02 224.91 241.15C225.3 241.25 225.69 241.35 226.08 241.45C226.49 241.55 226.89 241.64 227.3 241.73C227.8 241.84 228.3 241.95 228.8 242.04C229.35 242.15 229.9 242.25 230.45 242.34C230.8 242.4 231.14 242.45 231.49 242.5C232.06 242.58 232.64 242.65 233.21 242.72C233.44 242.75 233.66 242.78 233.89 242.8C234.68 242.88 235.48 242.94 236.28 242.98C236.51 242.99 236.75 243 236.98 243.02C237.83 243.06 238.67 243.08 239.52 243.08C262.9 243.08 283 228.82 291.59 208.54C294.45 201.78 296.04 194.35 296.04 186.56C296.04 178.77 294.46 171.35 291.59 164.59Z" fill="#515151"/>
<path d="M154.08 130.05C143.27 130.05 133.15 133.11 124.56 138.4V86.02H97.56V244.18H124.56V234.75C133.16 240.04 143.27 243.1 154.08 243.1C185.25 243.1 210.6 217.74 210.6 186.58C210.6 155.42 185.25 130.05 154.08 130.05ZM154.08 216.1C137.8 216.1 124.56 202.86 124.56 186.58C124.56 170.3 137.8 157.06 154.08 157.06C170.36 157.06 183.6 170.3 183.6 186.58C183.6 202.86 170.36 216.1 154.08 216.1Z" fill="#515151"/>
</g>
<defs>
<linearGradient id="paint0_linear" x1="95.9005" y1="332.209" x2="287.701" y2="-5.68604e-06" gradientUnits="userSpaceOnUse">
<stop stop-color="#FFE016"/>
<stop offset="1" stop-color="#5FEDAB"/>
</linearGradient>
<clipPath id="clip0">
<rect width="383.6" height="332.21" fill="white"/>
</clipPath>
</defs>
</svg>
